# xmcd CD database file
#
# Track frame offsets:
#	150
#	15645
#	38362
#	51550
#
# Disc length: 879 seconds
#
# Revision: 0
# Processed by: cddbd v1.5.1PL0 Copyright (c) Steve Scherf et al.
# Submitted via: CDex 1.51
#
DISCID=28036d04
DTITLE=MILK CROWN - MILK CROWN
DYEAR=1900
DGENRE=J-Pop
TTITLE0=バレリーナ
TTITLE1=消独
TTITLE2=I'm Baby
TTITLE3=エスケイプ
EXTD=
EXTT0=
EXTT1=
EXTT2=
EXTT3=
PLAYORDER=
